# xmcd
#
# Track frame offsets:
# 150
# 25592
# 48052
# 60893
# 77062
# 104021
# 123860
# 144052
# 162580
# 178849
# 194531
# 211768
# 225839
# 252764
# 284423
# 300956
#
# Disc length: 4193 seconds
#
# Revision: 0
# Processed by: cddbd v1.5.2PL0 Copyright (c) Steve Scherf et al.
# Submitted via: Audion 3.0.2 (http://www.panic.com/audion/)
#
DISCID=c4105f10
DTITLE=Disco 1 - Caminado hacia la luz
DYEAR=1900
DGENRE=
TTITLE0=Me amas
TTITLE1=Señor te doy gracias
TTITLE2=Es por fe
TTITLE3=Ven a Jesus
TTITLE4=Amigos
TTITLE5=Se oyen en las nacioens
TTITLE6=Soldado de Jesus
TTITLE7=Que bueno es vendecir a Jesus
TTITLE8=Espiritu Santo y fuego
TTITLE9=Me has llamado a conocerte
TTITLE10=Escucharte hablar
TTITLE11=En el nombres de Jesus cano, santo, danzo
TTITLE12=Yeshua es señor
TTITLE13=Alabare Salmo 150
TTITLE14=Di a la montaña
TTITLE15=Dime
EXTD=
EXTT0=
EXTT1=
EXTT2=
EXTT3=
EXTT4=
EXTT5=
EXTT6=
EXTT7=
EXTT8=
EXTT9=
EXTT10=
EXTT11=
EXTT12=
EXTT13=
EXTT14=
EXTT15=
PLAYORDER=
